# xmcd
#
# Track frame offsets: 
#        150
#        14340
#        25477
#        35970
#        45100
#        58002
#        71620
#        83715
#        96810
#        111237
#        121665
#        134507
#        148342
#        164465
#        177184
#        192200
#        206457
#        217990
#        229572
#        240182
#        252200
#        266507
#
# Disc length: 3692 seconds
#
# Revision: 3
# Processed by: cddbd v1.5.2PL0 Copyright (c) Steve Scherf et al.
# Submitted via: ExactAudioCopy v1.1
#
DISCID=300e6a16
DTITLE=Ray Charles - The Complete Swing Time And Down Beat Recordings 
DTITLE=1949-1952 - Disc 2
DYEAR=1996
DGENRE=R&B
TTITLE0=Someday (mono)
TTITLE1=I'll Do Anything But Work (mono)
TTITLE2=I Wonder Who's Kissing Her Now (mono)
TTITLE3=All to Myself (mono)
TTITLE4=Lonely Boy (mono)
TTITLE5=Baby Let Me Hold Your Hand (mono)
TTITLE6=I'm Glad For Your Sake (mono)
TTITLE7=Baby Won't You Please Come Home (mono)
TTITLE8=Kissa Me Baby (mono)
TTITLE9=Hey Now (mono)
TTITLE10=The Snow Is Falling (mono)
TTITLE11=Misery In My Heart (mono)
TTITLE12=Baby Let Me Hear You Call My Name (mono)
TTITLE13=Why Did You Go (mono)
TTITLE14=I'm Wondering And Wonderin' (mono)
TTITLE15=Walkin' And Talkin' (mono)
TTITLE16=Guitar Blues (mono)
TTITLE17=Back Home (mono)
TTITLE18=The Ego Song (Sweet As Can Be) (alt - take 2) (mono)
TTITLE19=I'll Do Anything But Work (alt - take 2) (mono)
TTITLE20=Someday (alt - take 2) (mono)
TTITLE21=Late In The Evening Blues (mono)
EXTD=
EXTT0=
EXTT1=
EXTT2=
EXTT3=
EXTT4=
EXTT5=
EXTT6=
EXTT7=
EXTT8=
EXTT9=
EXTT10=
EXTT11=
EXTT12=
EXTT13=
EXTT14=
EXTT15=
EXTT16=
EXTT17=
EXTT18=
EXTT19=
EXTT20=
EXTT21=
PLAYORDER=
